<?xml version="1.0" encoding="utf-8"?>
<!-- Generator: Adobe Illustrator 16.0.0, SVG Export Plug-In . SVG Version: 6.00 Build 0)  -->
<!DOCTYPE svg PUBLIC "-//W3C//DTD SVG 1.1//EN" "http://www.w3.org/Graphics/SVG/1.1/DTD/svg11.dtd">
<svg version="1.1" id="Layer_1" xmlns="http://www.w3.org/2000/svg" xmlns:xlink="http://www.w3.org/1999/xlink" x="0px" y="0px"
	 width="24px" height="24px" viewBox="0 0 24 24" enable-background="new 0 0 24 24" xml:space="preserve">
<path fill="#231F20" d="M12,3c-4.963,0-9,4.038-9,9s4.037,9,9,9s9-4.038,9-9S16.963,3,12,3z M12,19c-3.859,0-7-3.141-7-7
	c0-3.86,3.141-7,7-7c3.859,0,7,3.14,7,7C19,15.859,15.859,19,12,19z"/>
<path fill="#231F20" d="M12.707,12l2.646-2.646c0.192-0.194,0.192-0.512,0-0.707c-0.195-0.194-0.515-0.194-0.707,0L12,11.293
	L9.354,8.646c-0.195-0.194-0.513-0.194-0.707,0c-0.195,0.195-0.195,0.513,0,0.707L11.293,12l-2.646,2.646
	c-0.195,0.193-0.195,0.513,0,0.707C8.744,15.451,8.872,15.5,9,15.5s0.256-0.049,0.354-0.146L12,12.707l2.646,2.646
	C14.744,15.451,14.872,15.5,15,15.5s0.256-0.049,0.354-0.146c0.194-0.192,0.194-0.512,0-0.707L12.707,12z"/>
</svg>
